<svg width="409" height="302" viewBox="0 0 409 302" fill="none" xmlns="http://www.w3.org/2000/svg">
<g opacity="0.56">
<mask id="mask0_296_865" style="mask-type:alpha" maskUnits="userSpaceOnUse" x="0" y="0" width="462" height="302">
<path d="M176.175 238.108C164.778 238.108 155.898 235.232 151.292 229.833C141.89 218.813 144.122 196.996 166.773 178.277C176.08 170.576 186.859 165.708 197.117 164.513C209.32 163.097 220.527 166.859 229.502 175.311C242.656 187.703 242.656 198.589 240.329 205.493C236.293 217.442 219.34 231.78 190.468 236.781C185.387 237.666 180.591 238.108 176.175 238.108ZM156.753 225.85C161.407 231.293 174.133 233.107 189.234 230.452C215.114 225.938 230.452 213.37 233.776 203.59C236.34 195.978 233.253 188.012 224.611 179.87C207.611 163.849 185.34 171.638 171.426 183.144C156.706 195.314 147.208 214.609 156.753 225.85Z" fill="white"/>
<path d="M181.443 227.753C173.371 227.753 167.008 225.717 163.684 221.823C154.709 211.379 162.686 195.093 174.748 185.047C193.648 169.337 210.98 173.762 220.097 182.348C229.405 191.154 229.357 198.943 227.695 203.988C223.659 216.07 206.706 224.168 191.653 226.823C188.044 227.443 184.625 227.753 181.443 227.753ZM169.05 217.796C171.994 221.203 180.304 222.221 190.324 220.451C203.287 218.149 218.008 211.113 221.047 202.041C222.661 197.217 220.667 192.084 215.159 186.862C204 176.374 188.899 181.905 179.354 189.871C169.525 198.058 162.971 210.715 169.097 217.796" fill="white"/>
<path d="M186.575 217.398C181.827 217.398 178.123 216.159 176.033 213.813C170.572 207.618 175.226 198.103 182.634 191.863C190.707 185.092 202.483 181.685 210.651 189.341C216.112 194.518 216.064 199.298 215.02 202.396C212.55 209.963 202.056 215.052 192.843 216.778C190.612 217.177 188.522 217.398 186.575 217.398ZM181.399 209.698C182.207 210.583 185.531 211.556 191.514 210.45C199.776 208.901 207.089 204.653 208.419 200.493C208.657 199.74 209.464 197.395 205.712 193.899C200.061 188.588 191.467 193.147 187.24 196.687C181.732 201.289 179.12 207.175 181.352 209.742" fill="white"/>
<path d="M191.894 207.13C190.707 207.13 189.567 206.821 188.712 206.069C187.62 205.139 187.193 203.723 187.573 202.351C188.38 199.165 193.841 196.111 196.405 195.447C199.017 194.739 200.536 195.713 201.201 196.332C202.958 197.926 203.481 200.714 200.821 203.281C199.254 204.829 195.218 207.086 191.894 207.086" fill="white"/>
<path d="M399.933 96.185L396.514 90.5648L402.161 87.5999C424.528 75.7398 434.739 70.2964 452.734 66.9775L454.064 73.3058C437.21 76.4034 427.283 81.6699 405.581 93.176L399.933 96.185Z" fill="white"/>
<path d="M406.104 136.766L403.254 130.88C430.558 119.507 447.795 114.108 461.046 112.692L461.806 119.109C449.317 120.437 432.647 125.703 406.055 136.766" fill="white"/>
<path d="M406.292 122.118L403.303 116.321C430.418 104.151 444.233 99.4154 458.29 97.4681L459.289 103.841C446.039 105.655 432.696 110.258 406.342 122.118" fill="white"/>
<path d="M403.538 108.842L400.311 103.133C425.716 90.6973 438.632 84.9884 455.44 82.2446L456.627 88.6171C440.768 91.2283 428.233 96.8043 403.492 108.886" fill="white"/>
<path d="M286.485 140.351C274.66 140.351 268.012 136.855 264.356 133.492C255.096 124.95 255.666 109.638 266.018 90.2992C277.225 69.3227 293.322 57.5067 310.133 57.9938C329.365 58.5247 347.124 74.412 360.088 102.691C361.463 105.7 362.7 108.753 363.696 111.763L364.552 114.329L361.986 115.568C358.378 117.339 354.629 119.197 350.638 121.1C320.294 135.748 299.971 140.351 286.437 140.351M272.238 93.176C263.359 109.816 262.266 122.517 269.247 128.889C280.074 138.846 309.373 133.801 347.504 115.392C350.496 113.931 353.393 112.515 356.193 111.143C355.435 109.152 354.629 107.16 353.725 105.213C337.722 70.3407 319.44 64.6762 309.943 64.4548C296.029 64.0565 282.211 74.5446 272.238 93.176Z" fill="white"/>
<path d="M159.222 269.486C137.758 269.486 122.753 263.733 114.395 252.315C92.8362 222.709 121.945 183.499 170.144 118.534C176.032 110.613 182.206 102.293 188.616 93.5303C219.957 50.7806 211.267 33.4774 206.091 28.034C195.027 16.3951 166.677 19.1388 133.864 35.0706C86.7581 57.9055 52.8053 57.9498 20.2773 35.2032L24.4561 30.0254C54.9424 51.3561 85.7135 51.1789 130.683 29.3616C166.915 11.7484 197.828 9.62417 211.267 23.7856C224.706 37.9028 218.675 63.9686 194.314 97.2036C187.904 105.966 181.731 114.286 175.795 122.207C129.258 184.872 101.146 222.709 120.046 248.686C142.982 280.107 231.211 253.023 281.452 228.595C350.592 194.829 379.51 160.045 372.483 119.154C371.2 111.63 368.684 103.842 365.027 96.0087C350.876 66.0043 332.167 49.099 312.318 48.3467C294.035 47.6827 276.133 60.7823 261.935 85.2992C248.164 108.975 246.55 128.536 257.424 138.935C271.622 152.522 305.052 148.848 346.84 129.111C352.111 126.588 357.051 124.243 361.75 121.986L364.934 127.739C360.232 129.996 355.292 132.386 349.974 134.908C304.72 156.327 269.153 159.469 252.485 143.494C239.332 130.925 240.566 108.621 255.857 82.2898C271.385 55.5158 291.519 41.1775 312.603 41.9741C335.253 42.8149 356.148 61.1364 371.392 93.5303C375.284 101.85 377.992 110.17 379.368 118.269C386.917 162.301 356.813 199.21 284.681 234.436C255.002 248.863 220.384 260.679 192.13 266.078C179.831 268.424 168.862 269.574 159.174 269.574" fill="white"/>
<path d="M149.347 285.196C126.411 285.196 106.847 279.664 95.9247 264.927C69.8072 229.613 103.997 185.27 155.757 118.18C161.408 110.834 167.296 103.266 173.28 95.389C193.366 69.0578 200.632 48.2582 192.749 39.7615C184.487 30.8662 159.319 34.9379 127.123 50.4268C80.9664 72.5982 43.8322 71.9785 10.2119 48.4354L14.3907 43.2577C45.6366 65.1192 80.4443 65.5617 123.942 44.6736C160.173 27.2817 187.193 23.9184 197.973 35.5572C208.42 46.798 201.677 69.3677 178.931 99.1508C172.9 107.028 167.059 114.64 161.408 121.986C111.358 186.863 78.3071 229.745 101.67 261.299C132.869 303.385 249.59 259.174 288.007 240.366C376.283 197.041 405.25 146.813 376.567 86.9365C360.09 52.7723 338.199 33.3889 314.884 32.3709C292.518 31.3975 270.152 47.4174 251.869 77.4661C233.207 108.09 230.928 135.085 245.744 149.645C263.076 166.683 300.685 164.16 346.272 142.874L362.656 135.218L365.741 140.971L349.359 148.627C279.459 181.243 250.065 163.319 240.663 154.07C223.615 137.342 225.515 107.515 245.744 74.2798C265.403 42.0182 290.049 24.8035 315.074 25.9098C341.144 27.0604 365.173 47.7715 382.787 84.3257C397.367 114.773 397.701 143.494 383.786 169.692C369.064 197.396 337.914 223.107 291.093 246.119C262.032 260.325 198.02 285.285 149.252 285.285" fill="white"/>
<path d="M139.04 301.215C109.883 301.215 89.2743 293.294 77.4025 277.495C46.3467 236.029 88.9416 182.968 142.886 115.834C147.777 109.727 152.811 103.487 157.844 97.1142C185.149 62.8615 181.112 53.3911 179.213 51.3109C177.171 49.0542 166.867 43.4336 120.235 65.6053C75.0283 87.1128 34.5701 85.7408 0 61.5337L4.17881 56.356C36.4695 78.9699 74.4585 80.1205 117.101 59.8521C153.713 42.4602 176.412 38.1675 184.532 47.1512C192.224 55.6478 185.149 73.7479 163.448 100.964C158.367 107.337 153.381 113.577 148.442 119.684C94.1177 187.26 54.8943 236.117 83.101 273.778C119.855 322.811 251.202 273.247 294.32 252.004C391.335 204.254 421.915 147.21 387.916 77.6866C369.11 39.3181 344.038 17.4565 317.256 16.1731C290.853 14.8897 264.024 33.8305 241.658 69.411C218.152 106.85 215.16 141.767 233.917 160.487C254.241 180.843 296.029 179.295 345.652 156.415C350.306 154.247 354.819 152.211 359.091 150.264L362.13 156.061C357.808 158.008 353.345 160.044 348.692 162.212C296.172 186.419 251.392 187.437 228.836 164.912C207.61 143.67 210.127 106.718 235.674 66.1363C259.417 28.343 288.574 8.34008 317.636 9.71197C347.124 11.1281 374.335 34.273 394.232 74.987C410.186 107.603 412.514 138.182 401.07 165.93C387.155 199.829 352.3 230.718 297.549 257.669C277.984 267.317 232.873 286.124 187.856 295.462C169.574 299.268 153.286 301.171 139.04 301.171" fill="white"/>
<path d="M169.907 253.553C153.097 253.553 139.801 249.482 132.868 239.746C115.631 215.45 139.184 182.525 186.148 116.852C191.799 108.974 197.782 100.61 204.003 91.8038C227.793 58.259 233.397 30.7772 219.436 16.3944C205.617 2.14455 173.992 3.56069 140.703 19.8463C92.0776 43.6992 62.2089 44.2747 30.4404 22.059L34.6192 16.8812C64.1556 37.5481 91.0803 36.8399 137.474 14.0932C174.134 -3.87405 208.324 -4.71489 224.564 12.0132C240.805 28.7414 235.439 59.0997 209.749 95.2999C203.48 104.151 197.497 112.515 191.846 120.392C148.017 181.684 123.846 215.406 138.567 236.117C154.664 258.731 220.908 243.109 275.042 216.866C327.989 191.243 374.147 164.071 357.005 113.621L363.605 111.674C382.315 166.815 331.693 196.731 278.224 222.575C241.897 240.144 200.109 253.465 169.812 253.465" fill="white"/>
</mask>
<g mask="url(#mask0_296_865)">
<path d="M297.198 12.7206L413.213 14.5809V205.007C413.213 205.007 350.639 205.007 281.132 205.007C128.154 205.007 256.102 44.0074 256.102 44.0074L297.198 12.7206Z" fill="white"/>
</g>
</g>
</svg>
