<svg width="106" height="106" viewBox="0 0 106 106" fill="none" xmlns="http://www.w3.org/2000/svg">
<path d="M55.0006 87.9999V76.9999C55.0006 76.9999 48.4006 72.5999 37.4006 72.5999C26.4006 72.5999 19.8006 76.9999 19.8006 76.9999V87.9999M85.8006 87.9999V76.9999C85.8006 76.9999 79.2006 72.5999 68.2006 72.5999C65.9892 72.5965 63.7814 72.7791 61.6006 73.1455M99.0006 45.0999L97.9138 44.6027C81.4402 37.0515 67.6996 24.5986 58.569 8.94511L57.2006 6.59991H48.4006L47.0322 8.94511C37.9016 24.5986 24.1609 37.0515 7.68739 44.6027L6.60059 45.0999V98.9999H99.0006V45.0999ZM36.7406 63.7999C36.7406 63.7999 29.7006 59.3999 29.7006 53.8999C29.7006 51.8601 30.5109 49.9038 31.9533 48.4614C33.3957 47.019 35.3519 46.2087 37.3918 46.2087C39.4316 46.2087 41.3879 47.019 42.8303 48.4614C44.2727 49.9038 45.083 51.8601 45.083 53.8999C45.083 59.3999 38.0606 63.7999 38.0606 63.7999H36.7406ZM67.5406 63.7999C67.5406 63.7999 60.5006 59.3999 60.5006 53.8999C60.5006 51.8601 61.3109 49.9038 62.7533 48.4614C64.1956 47.019 66.1519 46.2087 68.1918 46.2087C70.2316 46.2087 72.1879 47.019 73.6303 48.4614C75.0726 49.9038 75.883 51.8601 75.883 53.8999C75.883 59.3999 68.8606 63.7999 68.8606 63.7999H67.5406Z" stroke="#CAE0F0" stroke-width="4.4"/>
</svg>
