<svg width="106" height="106" viewBox="0 0 106 106" fill="none" xmlns="http://www.w3.org/2000/svg">
<g clip-path="url(#clip0_318_2595)">
<path d="M70.958 87.9999C75.2032 85.8039 79.0175 82.8601 82.2176 79.3099M82.2176 79.3099C81.0716 77.9259 80.3768 76.2242 80.2265 74.4335C80.0762 72.6429 80.4777 70.8492 81.377 69.2935C82.2763 67.7378 83.6303 66.4947 85.257 65.7313C86.8837 64.9679 88.7051 64.7208 90.4764 65.0231M82.2176 79.3099C83.1227 80.403 84.2787 81.261 85.5871 81.8107C86.8955 82.3604 88.3174 82.5855 89.7316 82.4668C91.1458 82.3481 92.5103 81.8892 93.7087 81.1291C94.9072 80.3691 95.9041 79.3304 96.6143 78.1018C97.3246 76.8731 97.7271 75.4909 97.7877 74.0731C97.8482 72.6552 97.5649 71.2437 96.962 69.959C96.3591 68.6743 95.4544 67.5544 94.3251 66.695C93.1958 65.8355 91.8753 65.2619 90.4764 65.0231M35.1992 88.2859C30.7311 86.0625 26.7218 83.0174 23.3808 79.3099M23.3808 79.3099C22.4757 80.403 21.3197 81.261 20.0113 81.8107C18.7029 82.3604 17.281 82.5855 15.8668 82.4668C14.4526 82.3481 13.0881 81.8892 11.8897 81.1291C10.6912 80.3691 9.69434 79.3304 8.98409 78.1018C8.27385 76.8731 7.87129 75.4909 7.81075 74.0731C7.75021 72.6552 8.03348 71.2437 8.63641 69.959C9.23934 68.6743 10.144 67.5544 11.2733 66.695C12.4027 65.8355 13.7231 65.2619 15.122 65.0231M23.3808 79.3099C24.5268 77.9259 25.2216 76.2242 25.3719 74.4335C25.5222 72.6429 25.1207 70.8492 24.2214 69.2935C23.3221 67.7378 21.9681 66.4947 20.3414 65.7313C18.7147 64.9679 16.8933 64.7208 15.122 65.0231M24.1992 103.4C24.1992 103.4 46.736 103.4 49.266 60.8607M81.3992 103.4C81.3992 103.4 58.8624 103.4 56.328 60.8607M15.122 65.0231C13.8441 61.0748 13.1952 56.9499 13.1992 52.7999C13.1992 48.5319 13.8724 44.4267 15.122 40.5767M15.122 40.5767C16.8933 40.8791 18.7147 40.6319 20.3414 39.8685C21.9681 39.1051 23.3221 37.862 24.2214 36.3063C25.1207 34.7506 25.5222 32.9569 25.3719 31.1663C25.2216 29.3757 24.5268 27.674 23.3808 26.2899M15.122 40.5767C13.7231 40.3379 12.4027 39.7643 11.2733 38.9049C10.144 38.0454 9.23934 36.9256 8.63641 35.6409C8.03348 34.3561 7.75021 32.9447 7.81075 31.5268C7.87129 30.1089 8.27385 28.7267 8.98409 27.4981C9.69434 26.2694 10.6912 25.2308 11.8897 24.4707C13.0881 23.7106 14.4526 23.2517 15.8668 23.133C17.281 23.0143 18.7029 23.2395 20.0113 23.7892C21.3197 24.3389 22.4757 25.1968 23.3808 26.2899M23.3808 26.2899C28.9671 20.0804 36.3756 15.7985 44.5448 14.0579M44.5448 14.0579C45.1682 15.745 46.2936 17.2005 47.7695 18.2285C49.2453 19.2564 51.0007 19.8075 52.7992 19.8075C54.5978 19.8075 56.3531 19.2564 57.8289 18.2285C59.3048 17.2005 60.4302 15.745 61.0536 14.0579M44.5448 14.0579C44.052 12.7274 43.8883 11.2974 44.0675 9.88986C44.2468 8.48234 44.7637 7.13903 45.5743 5.97446C46.3848 4.80989 47.465 3.85858 48.7226 3.20164C49.9803 2.54469 51.3781 2.2016 52.797 2.2016C54.2159 2.2016 55.6137 2.54469 56.8714 3.20164C58.129 3.85858 59.2092 4.80989 60.0197 5.97446C60.8303 7.13903 61.3472 8.48234 61.5265 9.88986C61.7057 11.2974 61.542 12.7274 61.0492 14.0579C69.2198 15.798 76.63 20.0798 82.2176 26.2899M82.2176 26.2899C83.1227 25.1968 84.2787 24.3389 85.5871 23.7892C86.8955 23.2395 88.3174 23.0143 89.7316 23.133C91.1458 23.2517 92.5103 23.7106 93.7087 24.4707C94.9072 25.2308 95.9041 26.2694 96.6143 27.4981C97.3246 28.7267 97.7271 30.1089 97.7877 31.5268C97.8482 32.9447 97.5649 34.3561 96.962 35.6409C96.3591 36.9256 95.4544 38.0454 94.3251 38.9049C93.1958 39.7643 91.8753 40.3379 90.4764 40.5767M82.2176 26.2899C81.0716 27.674 80.3768 29.3757 80.2265 31.1663C80.0762 32.9569 80.4777 34.7506 81.377 36.3063C82.2763 37.862 83.6303 39.1051 85.257 39.8685C86.8837 40.6319 88.7051 40.8791 90.4764 40.5767M90.4764 40.5767C91.726 44.4267 92.3992 48.5363 92.3992 52.7999C92.4042 56.95 91.7553 61.075 90.4764 65.0231M49.266 60.8651C50.3789 61.3544 51.5813 61.607 52.797 61.607C54.0127 61.607 55.2151 61.3544 56.328 60.8651C58.1789 60.0543 59.6943 58.6312 60.6198 56.8349C61.5453 55.0386 61.8243 52.9786 61.4101 51.0008C60.996 49.023 59.9137 47.248 58.3453 45.974C56.7768 44.7 54.8177 44.0046 52.797 44.0046C50.7763 44.0046 48.8172 44.7 47.2487 45.974C45.6803 47.248 44.5981 49.023 44.1839 51.0008C43.7697 52.9786 44.0487 55.0386 44.9742 56.8349C45.8997 58.6312 47.4151 60.0543 49.266 60.8651Z" stroke="#CAE0F0" stroke-width="4.4"/>
</g>
<defs>
<clipPath id="clip0_318_2595">
<rect width="105.6" height="105.6" fill="white"/>
</clipPath>
</defs>
</svg>
