<svg width="106" height="106" viewBox="0 0 106 106" fill="none" xmlns="http://www.w3.org/2000/svg">
<g clip-path="url(#clip0_318_2598)">
<path d="M105.601 28.6001C104.153 28.6001 102.701 28.9081 101.478 29.6781C94.6006 34.0253 94.6006 39.9521 94.6006 44.0001V46.2001H74.8006M39.6006 59.4001H105.601M72.6006 59.4001V105.6M52.8006 103.4C48.4006 103.4 45.1006 96.8001 45.1006 96.8001C41.8006 90.2001 41.8006 85.8001 41.8006 79.2001V72.6001H6.60059V71.5001L15.0574 38.5221C15.7851 35.6836 17.4365 33.168 19.7516 31.3716C22.0666 29.5752 24.9135 28.6001 27.8438 28.6001H33.0006L39.3674 41.3337C40.0984 42.7966 41.2225 44.0268 42.6137 44.8864C44.0049 45.7459 45.6081 46.2009 47.2434 46.2001H66.0006M32.3406 19.8001C32.3406 19.8001 25.3006 15.4001 25.3006 9.90012C25.3006 8.8901 25.4995 7.88997 25.886 6.95683C26.2726 6.02369 26.8391 5.17582 27.5533 4.46162C28.2675 3.74743 29.1153 3.1809 30.0485 2.79438C30.9816 2.40786 31.9818 2.20892 32.9918 2.20892C34.0018 2.20892 35.0019 2.40786 35.9351 2.79438C36.8682 3.1809 37.7161 3.74743 38.4303 4.46162C39.1445 5.17582 39.711 6.02369 40.0975 6.95683C40.484 7.88997 40.683 8.8901 40.683 9.90012C40.683 15.4001 33.6606 19.8001 33.6606 19.8001H32.3406Z" stroke="#CAE0F0" stroke-width="4.4"/>
</g>
<defs>
<clipPath id="clip0_318_2598">
<rect width="105.6" height="105.6" fill="white"/>
</clipPath>
</defs>
</svg>
